<mxfile host="app.diagrams.net" modified="2023-03-21T04:49:26.607Z" agent="5.0 (Windows NT 10.0; Win64; x64) AppleWebKit/537.36 (KHTML, like Gecko) Chrome/111.0.0.0 Safari/537.36" etag="Hg-HMtz8hBAMSxfPtIhY" version="21.0.6" type="github">
  <diagram name="第 1 页" id="X5exlLq1nHoOY3AGi556">
    <mxGraphModel dx="1050" dy="549" grid="1" gridSize="10" guides="1" tooltips="1" connect="1" arrows="1" fold="1" page="1" pageScale="1" pageWidth="827" pageHeight="1169" math="0" shadow="0">
      <root>
        <mxCell id="0" />
        <mxCell id="1" parent="0" />
        <mxCell id="Wf-t3JEp5CUFnMiaRJwg-1" value="用户A" style="shape=umlLifeline;perimeter=lifelinePerimeter;whiteSpace=wrap;html=1;container=1;dropTarget=0;collapsible=0;recursiveResize=0;outlineConnect=0;portConstraint=eastwest;newEdgeStyle={&quot;edgeStyle&quot;:&quot;elbowEdgeStyle&quot;,&quot;elbow&quot;:&quot;vertical&quot;,&quot;curved&quot;:0,&quot;rounded&quot;:0};" vertex="1" parent="1">
          <mxGeometry x="146" y="40" width="100" height="440" as="geometry" />
        </mxCell>
        <mxCell id="Wf-t3JEp5CUFnMiaRJwg-2" value="用户B" style="shape=umlLifeline;perimeter=lifelinePerimeter;whiteSpace=wrap;html=1;container=1;dropTarget=0;collapsible=0;recursiveResize=0;outlineConnect=0;portConstraint=eastwest;newEdgeStyle={&quot;edgeStyle&quot;:&quot;elbowEdgeStyle&quot;,&quot;elbow&quot;:&quot;vertical&quot;,&quot;curved&quot;:0,&quot;rounded&quot;:0};" vertex="1" parent="1">
          <mxGeometry x="700" y="40" width="100" height="440" as="geometry" />
        </mxCell>
        <mxCell id="Wf-t3JEp5CUFnMiaRJwg-5" value="用户A开启事务(begin)，age=25&lt;br&gt;" style="html=1;verticalAlign=bottom;startArrow=oval;endArrow=block;startSize=8;edgeStyle=elbowEdgeStyle;elbow=vertical;curved=0;rounded=0;" edge="1" target="Wf-t3JEp5CUFnMiaRJwg-13" parent="1">
          <mxGeometry relative="1" as="geometry">
            <mxPoint x="200" y="120" as="sourcePoint" />
            <mxPoint x="380" y="120" as="targetPoint" />
            <mxPoint as="offset" />
          </mxGeometry>
        </mxCell>
        <mxCell id="Wf-t3JEp5CUFnMiaRJwg-6" value="原始值：age=24" style="text;align=center;fontStyle=1;verticalAlign=middle;spacingLeft=3;spacingRight=3;strokeColor=none;rotatable=0;points=[[0,0.5],[1,0.5]];portConstraint=eastwest;html=1;" vertex="1" parent="1">
          <mxGeometry x="30" y="14" width="80" height="26" as="geometry" />
        </mxCell>
        <mxCell id="Wf-t3JEp5CUFnMiaRJwg-11" value="用户B开启事务(begin)，age=26" style="html=1;verticalAlign=bottom;endArrow=block;edgeStyle=elbowEdgeStyle;elbow=vertical;curved=0;rounded=0;" edge="1" target="Wf-t3JEp5CUFnMiaRJwg-13" parent="1" source="Wf-t3JEp5CUFnMiaRJwg-2">
          <mxGeometry relative="1" as="geometry">
            <mxPoint x="730" y="161" as="sourcePoint" />
            <mxPoint x="660" y="161" as="targetPoint" />
          </mxGeometry>
        </mxCell>
        <mxCell id="Wf-t3JEp5CUFnMiaRJwg-13" value="DB" style="shape=umlLifeline;perimeter=lifelinePerimeter;whiteSpace=wrap;html=1;container=1;dropTarget=0;collapsible=0;recursiveResize=0;outlineConnect=0;portConstraint=eastwest;newEdgeStyle={&quot;edgeStyle&quot;:&quot;elbowEdgeStyle&quot;,&quot;elbow&quot;:&quot;vertical&quot;,&quot;curved&quot;:0,&quot;rounded&quot;:0};" vertex="1" parent="1">
          <mxGeometry x="400" y="40" width="100" height="440" as="geometry" />
        </mxCell>
        <mxCell id="Wf-t3JEp5CUFnMiaRJwg-15" value="" style="html=1;points=[];perimeter=orthogonalPerimeter;outlineConnect=0;targetShapes=umlLifeline;portConstraint=eastwest;newEdgeStyle={&quot;edgeStyle&quot;:&quot;elbowEdgeStyle&quot;,&quot;elbow&quot;:&quot;vertical&quot;,&quot;curved&quot;:0,&quot;rounded&quot;:0};" vertex="1" parent="Wf-t3JEp5CUFnMiaRJwg-13">
          <mxGeometry x="45" y="261" width="10" height="40" as="geometry" />
        </mxCell>
        <mxCell id="Wf-t3JEp5CUFnMiaRJwg-16" value="DB持久化age = 26" style="html=1;align=left;spacingLeft=2;endArrow=block;rounded=0;edgeStyle=orthogonalEdgeStyle;curved=0;rounded=0;" edge="1" target="Wf-t3JEp5CUFnMiaRJwg-15" parent="Wf-t3JEp5CUFnMiaRJwg-13">
          <mxGeometry relative="1" as="geometry">
            <mxPoint x="60" y="243" as="sourcePoint" />
            <Array as="points">
              <mxPoint x="60" y="243" />
              <mxPoint x="90" y="243" />
              <mxPoint x="90" y="281" />
            </Array>
          </mxGeometry>
        </mxCell>
        <mxCell id="Wf-t3JEp5CUFnMiaRJwg-18" value="" style="html=1;points=[];perimeter=orthogonalPerimeter;outlineConnect=0;targetShapes=umlLifeline;portConstraint=eastwest;newEdgeStyle={&quot;edgeStyle&quot;:&quot;elbowEdgeStyle&quot;,&quot;elbow&quot;:&quot;vertical&quot;,&quot;curved&quot;:0,&quot;rounded&quot;:0};" vertex="1" parent="Wf-t3JEp5CUFnMiaRJwg-13">
          <mxGeometry x="45" y="400" width="10" height="40" as="geometry" />
        </mxCell>
        <mxCell id="Wf-t3JEp5CUFnMiaRJwg-19" value="DB持久化age = 26" style="html=1;align=left;spacingLeft=2;endArrow=block;rounded=0;edgeStyle=orthogonalEdgeStyle;curved=0;rounded=0;" edge="1" parent="Wf-t3JEp5CUFnMiaRJwg-13" target="Wf-t3JEp5CUFnMiaRJwg-18">
          <mxGeometry relative="1" as="geometry">
            <mxPoint x="40" y="382" as="sourcePoint" />
            <Array as="points">
              <mxPoint x="20" y="382" />
              <mxPoint x="20" y="420" />
            </Array>
          </mxGeometry>
        </mxCell>
        <mxCell id="Wf-t3JEp5CUFnMiaRJwg-14" value="用户B提交事务，age=26" style="html=1;verticalAlign=bottom;endArrow=block;edgeStyle=elbowEdgeStyle;elbow=vertical;curved=0;rounded=0;" edge="1" parent="1">
          <mxGeometry relative="1" as="geometry">
            <mxPoint x="750" y="200" as="sourcePoint" />
            <mxPoint x="450" y="200" as="targetPoint" />
          </mxGeometry>
        </mxCell>
        <mxCell id="Wf-t3JEp5CUFnMiaRJwg-17" value="用户A提交事务，age=25" style="html=1;verticalAlign=bottom;startArrow=oval;endArrow=block;startSize=8;edgeStyle=elbowEdgeStyle;elbow=vertical;curved=0;rounded=0;" edge="1" parent="1">
          <mxGeometry relative="1" as="geometry">
            <mxPoint x="200" y="400" as="sourcePoint" />
            <mxPoint x="450" y="400" as="targetPoint" />
            <mxPoint as="offset" />
          </mxGeometry>
        </mxCell>
      </root>
    </mxGraphModel>
  </diagram>
</mxfile>
